<mxfile host="app.diagrams.net" modified="2024-04-29T05:03:36.167Z" agent="Mozilla/5.0 (Windows NT 10.0; Win64; x64) AppleWebKit/537.36 (KHTML, like Gecko) Chrome/124.0.0.0 Safari/537.36" version="24.3.1" etag="30jir3S3q6Mq9HrYNVcf" type="github">
  <diagram name="Page-1" id="6fqEm8pjs2zmk9Nuk3q_">
    <mxGraphModel>
      <root>
        <mxCell id="0" />
        <mxCell id="1" parent="0" />
      </root>
    </mxGraphModel>
  </diagram>
</mxfile>
